# xmcd
#
# Track frame offsets:
#	150
#	12449
#	28609
#	41441
#	58197
#	71202
#	86354
#	100866
#	112413
#	117628
#	129774
#	137488
#	148631
#	163134
#	182178
#	194335
#	209460
#	220676
#	234937
#	251150
#	272646
#
# Disc length: 4066 seconds
#
# Revision: 0
# Processed by: cddbd v1.5.2PL0 Copyright (c) Steve Scherf et al.
# Submitted via: dBpowerAMP V4.0
#
DISCID=3d0fe015
DTITLE=Various Artist - Fiddler Magazine's Favorites
DYEAR=1900
DGENRE=Violin
TTITLE0=Going to Chattanooga - Charlie Acuff
TTITLE1=Josie Girl - Charlie Acuff
TTITLE2=Oh, Lady Be Good - Paul Anastasio
TTITLE3=Concertina Hornpipe and The Homer Spit - Randal Bays
TTITLE4=Jumpin' the Strings - Byron Berline
TTITLE5=The Long Acre and Clyde's Banks - Kevin Burke
TTITLE6=Take A Break - Vassar Clements
TTITLE7=Madame Etienne - Michael Doucet
TTITLE8=Jackie I Hardly Knew Ya - Jackie Dunn
TTITLE9=Maysville - J.P. Farley
TTITLE10=Barefoot Fiddler - Johnny Gimble
TTITLE11=Five Miles of Ellum Wood - Bruce Greene
TTITLE12=Duck River - Bruce Greene
TTITLE13=The Methodist Preacher - Richard Greene
TTITLE14=Fiddler Magazine - John Hartford
TTITLE15=Jim, the Fiddle Maker - Ivan Hicks
TTITLE16=Boo Baby's Lullaby - Jerry Holland
TTITLE17=Angus MacIsaac's Jig and Alexander William MacDonnell's Jig and John Morris Rankin's Jig - Jerry Holland
TTITLE18=Bisonpolska - Olov Johansson
TTITLE19=Lads of Laois and Gan Aimn and The Heathery Cruach - James Kelly
TTITLE20=Limerick's Lamentation - James Kelly
EXTD=
EXTT0=
EXTT1=
EXTT2=
EXTT3=
EXTT4=
EXTT5=
EXTT6=
EXTT7=
EXTT8=
EXTT9=
EXTT10=
EXTT11=
EXTT12=
EXTT13=
EXTT14=
EXTT15=
EXTT16=
EXTT17=
EXTT18=
EXTT19=
EXTT20=
PLAYORDER=
